HIERARCHY
ROOT Hips
{
    OFFSET 0.000000 0.000000 0.000000
    CHANNELS 6 Xposition Yposition Zposition Zrotation Xrotation Yrotation
    JOINT Spine
    {
        OFFSET -0.000000 7.979263 0.000000
        CHANNELS 3 Zrotation Xrotation Yrotation
        JOINT Spine1
        {
            OFFSET -0.000000 24.719021 0.000000
            CHANNELS 3 Zrotation Xrotation Yrotation
            JOINT Neck
            {
                OFFSET -0.000000 24.617504 2.237955
                CHANNELS 3 Zrotation Xrotation Yrotation
                JOINT Head
                {
                    OFFSET -0.000000 13.623132 -1.946162
                    CHANNELS 3 Zrotation Xrotation Yrotation
                    End Site
                    {
                        OFFSET -0.000000 24.327021 0.000000
                    }
                }
            }
            JOINT LeftShoulder
            {
                OFFSET 3.885773 23.018444 -0.302444
                CHANNELS 3 Zrotation Xrotation Yrotation
                JOINT LeftArm
                {
                    OFFSET 10.447750 0.000000 0.000000
                    CHANNELS 3 Zrotation Xrotation Yrotation
                    JOINT LeftForeArm
                    {
                        OFFSET 29.090096 0.000000 0.000000
                        CHANNELS 3 Zrotation Xrotation Yrotation
                        JOINT LeftHand
                        {
                            OFFSET 28.893339 0.000000 0.000000
                            CHANNELS 3 Zrotation Xrotation Yrotation
                            End Site
                            {
                                OFFSET 14.596213 0.000000 0.000000
                            }
                        }
                    }
                }
            }
            JOINT RightShoulder
            {
                OFFSET -3.864586 23.018444 -0.302444
                CHANNELS 3 Zrotation Xrotation Yrotation
                JOINT RightArm
                {
                    OFFSET -10.447750 0.000000 0.000000
                    CHANNELS 3 Zrotation Xrotation Yrotation
                    JOINT RightForeArm
                    {
                        OFFSET -29.090096 0.000000 0.000000
                        CHANNELS 3 Zrotation Xrotation Yrotation
                        JOINT RightHand
                        {
                            OFFSET -28.893339 0.000000 0.000000
                            CHANNELS 3 Zrotation Xrotation Yrotation
                            End Site
                            {
                                OFFSET -14.596213 0.000000 0.000000
                            }
                        }
                    }
                }
            }
        }
    }
    JOINT LeftUpLeg
    {
        OFFSET 9.730808 0.000000 0.000000
        CHANNELS 3 Zrotation Xrotation Yrotation
        JOINT LeftLeg
        {
            OFFSET -0.000000 -34.800129 0.000000
            CHANNELS 3 Zrotation Xrotation Yrotation
            JOINT LeftFoot
            {
                OFFSET -0.000000 -44.597416 0.000000
                CHANNELS 3 Zrotation Xrotation Yrotation
                JOINT LeftToeBase
                {
                    OFFSET -0.000000 -6.325025 14.596213
                    CHANNELS 3 Zrotation Xrotation Yrotation
                    End Site
                    {
                        OFFSET -0.000000 0.000000 3.892323
                    }
                }
            }
        }
    }
    JOINT RightUpLeg
    {
        OFFSET -9.730808 0.000000 0.000000
        CHANNELS 3 Zrotation Xrotation Yrotation
        JOINT RightLeg
        {
            OFFSET -0.000000 -34.800129 0.000000
            CHANNELS 3 Zrotation Xrotation Yrotation
            JOINT RightFoot
            {
                OFFSET -0.000000 -44.597416 0.000000
                CHANNELS 3 Zrotation Xrotation Yrotation
                JOINT RightToeBase
                {
                    OFFSET -0.000000 -6.325025 14.596213
                    CHANNELS 3 Zrotation Xrotation Yrotation
                    End Site
                    {
                        OFFSET -0.000000 0.000000 3.892323
                    }
                }
            }
        }
    }
}
MOTION
Frames:    9
Frame Time:    0.008333
51.782417    129.341187    29.800896    -16.225021    -7.960976    93.119041    1.910971    -10.678796    -0.923558    2.841006    -5.947309    -0.954548    -1.306744    28.879015    -1.528000    7.229613    33.359447    -2.941651    8.251019    4.706870    -17.368313    -72.094170    40.613213    2.354515    0.605005    -15.493484    -16.732504    -6.325890    -15.250355    -2.954706    -6.914155    5.662868    -2.577193    65.207054    48.964890    6.812918    -0.284036    -15.287158    10.912224    6.657433    -14.989504    4.832007    7.669072    -24.586803    -6.552839    -0.994999    11.844603    12.256374    -5.780188    6.623404    -0.458407    0.000000    0.000000    0.000000    6.904984    -27.881487    -1.657469    -0.554967    17.424038    -9.327351    -6.511052    2.701871    1.786063    0.000000    0.000000    0.000000    
51.703930    129.337372    29.815733    -16.347235    -8.022871    93.068123    2.071599    -10.554343    -0.981775    2.840793    -5.997599    -1.024308    -1.406182    29.299000    -1.506156    6.983017    32.844151    -2.860110    8.114442    4.716496    -17.247057    -71.910660    40.742668    2.366723    0.773362    -15.432165    -16.769737    -6.160275    -15.182263    -2.698688    -6.928194    5.685900    -2.435676    65.161949    48.955967    6.851806    -0.491233    -15.377409    10.933882    6.650691    -15.059183    4.863471    7.772198    -24.814800    -6.461019    -1.019444    11.921126    12.244036    -5.675886    6.628209    -0.507962    0.000000    0.000000    0.000000    7.011548    -28.170921    -1.054984    -0.583739    17.344322    -9.099216    -6.868177    2.388010    1.894477    0.000000    0.000000    0.000000    
51.625896    129.330627    29.825157    -16.493423    -8.056767    93.058167    2.241157    -10.429842    -1.067926    2.785062    -6.092036    -1.124300    -1.397170    29.040207    -1.313342    6.815289    33.515820    -2.674019    8.032950    4.802606    -17.185011    -71.737030    40.759598    2.323267    0.881768    -15.434593    -16.712910    -6.122186    -15.161581    -2.872716    -6.886803    5.731377    -2.302751    65.063042    48.910973    6.945517    -0.667950    -15.418324    10.939660    6.541048    -15.092078    4.795424    7.807353    -25.079445    -6.429510    -1.020781    11.960469    12.735874    -5.594123    6.761986    -1.072675    0.000000    0.000000    0.000000    7.093582    -28.439001    -0.546826    -0.661461    17.232433    -8.735737    -6.764585    1.996166    1.964639    0.000000    0.000000    0.000000    
51.551128    129.331253    29.832119    -16.648178    -8.100949    93.057571    2.443151    -10.312229    -1.140316    2.696450    -6.192350    -1.214957    -1.613967    29.469982    -1.247901    6.889053    33.100716    -2.623334    7.937834    4.838462    -17.099781    -71.588234    40.887810    2.316742    1.009168    -15.418536    -16.708509    -5.935476    -15.149429    -2.525233    -6.766647    5.852072    -2.145330    64.863113    48.791977    7.074133    -0.821882    -15.384328    10.930991    6.671655    -15.032435    4.904127    7.829652    -25.363129    -6.376228    -1.001512    12.040381    12.665212    -5.576041    6.833072    -1.098986    0.000000    0.000000    0.000000    7.210753    -28.686537    -0.108012    -0.757209    17.132328    -8.613098    -6.536108    1.625301    2.169900    0.000000    0.000000    0.000000    
51.483284    129.331604    29.839342    -16.794506    -8.140649    93.081268    2.609339    -10.241543    -1.177527    2.636485    -6.215517    -1.268242    -1.581287    29.190535    -1.122860    6.928554    33.757629    -2.536846    7.872397    4.941821    -17.162857    -71.370850    40.919888    2.169889    1.069824    -15.444289    -16.608900    -6.065889    -15.145469    -2.902055    -6.632774    5.892687    -2.075369    64.726357    48.611263    7.106639    -0.908551    -15.356471    10.931216    6.629676    -14.995337    4.956116    7.821836    -25.644341    -6.355586    -0.987063    12.201688    12.142231    -5.725964    6.697191    -0.588299    0.000000    0.000000    0.000000    7.262473    -28.898592    0.333176    -0.713108    17.075670    -8.633746    -5.978542    1.329409    2.205095    0.000000    0.000000    0.000000    
51.420887    129.332169    29.848867    -16.919285    -8.177086    93.132919    2.752829    -10.180347    -1.228796    2.618348    -6.164976    -1.333079    -1.751406    29.493404    -1.115028    7.079871    33.415546    -2.556527    7.855376    4.972881    -17.185926    -71.243637    40.967449    2.012382    1.138381    -15.438613    -16.568998    -5.716146    -15.158857    -2.491949    -6.584571    5.874016    -2.040292    64.662483    48.544838    7.138923    -1.002596    -15.405961    10.930063    6.524540    -15.042231    4.927116    7.807412    -25.907623    -6.350698    -0.966382    12.317780    12.082304    -5.728096    6.710062    -0.601266    0.000000    0.000000    0.000000    7.306826    -29.081301    0.589066    -0.690541    17.072475    -8.693162    -5.757514    1.223761    2.309536    0.000000    0.000000    0.000000    
51.358543    129.333496    29.857698    -17.047144    -8.202034    93.199188    2.809129    -10.118538    -1.258853    2.720580    -6.117800    -1.362210    -1.617587    29.702080    -1.218289    6.848241    33.129936    -2.592193    7.803131    5.000945    -17.262808    -71.061417    40.975563    1.727428    1.211540    -15.446785    -16.422688    -5.804812    -15.153130    -2.559051    -6.465523    6.000713    -2.102387    64.313126    48.482468    7.366891    -1.039270    -15.511009    10.969892    6.355115    -15.152607    4.893049    7.772719    -26.179821    -6.352270    -0.938536    12.468928    11.960835    -5.615028    6.716001    -0.587887    0.000000    0.000000    0.000000    7.340516    -29.255396    0.648976    -0.710797    17.083519    -8.686625    -6.170723    1.352854    2.494226    0.000000    0.000000    0.000000    
51.295006    129.326797    29.864788    -17.224867    -8.215077    93.265793    2.815702    -10.144051    -1.266666    2.887614    -6.028191    -1.364546    -1.480943    29.795431    -1.320262    6.651878    33.007481    -2.641721    7.831740    5.092350    -17.493023    -70.964157    40.874863    1.431334    1.253555    -15.524659    -16.343224    -6.145982    -15.194633    -3.024088    -6.458462    6.000539    -2.144747    64.245003    48.416798    7.347967    -1.082225    -15.622358    11.005545    6.215317    -15.264284    4.918403    7.726617    -26.505987    -6.368681    -0.922284    12.625939    12.062909    -5.572061    6.708779    -0.793599    0.000000    0.000000    0.000000    7.354255    -29.465628    0.587498    -0.750265    17.102196    -8.656929    -6.693420    1.648174    2.655209    0.000000    0.000000    0.000000    
51.244354    129.319382    29.871077    -17.359173    -8.218232    93.344940    2.830464    -10.142855    -1.260080    3.018112    -5.885851    -1.356143    -1.464754    29.731533    -1.410121    6.852768    33.150402    -2.774608    7.917080    5.089330    -17.562981    -70.844475    40.971325    0.998556    1.282948    -15.545139    -16.259586    -6.015247    -15.230987    -2.715763    -6.424154    5.990185    -2.239007    64.160744    48.409714    7.334596    -1.125106    -15.724713    11.079027    6.084764    -15.369589    4.879247    7.668231    -26.775503    -6.367616    -0.886002    12.800647    12.060541    -5.605910    6.668697    -0.931752    0.000000    0.000000    0.000000    7.359817    -29.597651    0.381394    -0.824647    17.086607    -8.609537    -6.736197    2.131873    2.752351    0.000000    0.000000    0.000000    
